<mxfile host="app.diagrams.net" agent="Mozilla/5.0 (Windows NT 10.0; Win64; x64) AppleWebKit/537.36 (KHTML, like Gecko) Chrome/133.0.0.0 Safari/537.36" version="26.0.14">
  <diagram name="Page-1" id="8A9vxAhT35mFF_EgVfA0">
    <mxGraphModel dx="2049" dy="1114" grid="1" gridSize="10" guides="1" tooltips="1" connect="1" arrows="1" fold="1" page="1" pageScale="1" pageWidth="850" pageHeight="1100" math="0" shadow="0">
      <root>
        <mxCell id="0" />
        <mxCell id="1" parent="0" />
        <mxCell id="M50GNinpc0-9XSBfkmc_-64" value="" style="rounded=0;whiteSpace=wrap;html=1;fillColor=none;" vertex="1" parent="1">
          <mxGeometry y="400" width="560" height="270" as="geometry" />
        </mxCell>
        <mxCell id="M50GNinpc0-9XSBfkmc_-52" value="Direto no OpenFinance" style="text;html=1;align=center;verticalAlign=middle;whiteSpace=wrap;rounded=0;" vertex="1" parent="1">
          <mxGeometry x="5" y="20" width="150" height="30" as="geometry" />
        </mxCell>
        <mxCell id="M50GNinpc0-9XSBfkmc_-54" value="&lt;ul&gt;&lt;li&gt;Sem custos do terceiro&lt;/li&gt;&lt;li&gt;Burocracia&lt;/li&gt;&lt;li&gt;Necessita certificação e homologação&lt;/li&gt;&lt;li&gt;Leva mais tempo&lt;/li&gt;&lt;/ul&gt;" style="text;html=1;align=left;verticalAlign=middle;whiteSpace=wrap;rounded=0;" vertex="1" parent="1">
          <mxGeometry x="200" y="80" width="240" height="30" as="geometry" />
        </mxCell>
        <mxCell id="M50GNinpc0-9XSBfkmc_-59" value="" style="curved=1;endArrow=classic;html=1;rounded=0;exitX=0.5;exitY=1;exitDx=0;exitDy=0;" edge="1" parent="1" source="M50GNinpc0-9XSBfkmc_-52">
          <mxGeometry width="50" height="50" relative="1" as="geometry">
            <mxPoint x="160" y="140" as="sourcePoint" />
            <mxPoint x="210" y="90" as="targetPoint" />
            <Array as="points">
              <mxPoint x="80" y="80" />
              <mxPoint x="100" y="90" />
              <mxPoint x="120" y="90" />
              <mxPoint x="190" y="90" />
            </Array>
          </mxGeometry>
        </mxCell>
        <mxCell id="M50GNinpc0-9XSBfkmc_-60" value="API de Terceiros ( Recomendada)" style="text;html=1;align=center;verticalAlign=middle;whiteSpace=wrap;rounded=0;" vertex="1" parent="1">
          <mxGeometry x="10" y="160" width="210" height="30" as="geometry" />
        </mxCell>
        <mxCell id="M50GNinpc0-9XSBfkmc_-61" value="&lt;ul&gt;&lt;li&gt;Pesquisa de custos&lt;/li&gt;&lt;li&gt;Mais rápido para estar em PROD&lt;/li&gt;&lt;/ul&gt;" style="text;html=1;align=left;verticalAlign=middle;whiteSpace=wrap;rounded=0;" vertex="1" parent="1">
          <mxGeometry x="200" y="220" width="240" height="30" as="geometry" />
        </mxCell>
        <mxCell id="M50GNinpc0-9XSBfkmc_-62" value="" style="curved=1;endArrow=classic;html=1;rounded=0;exitX=0.5;exitY=1;exitDx=0;exitDy=0;" edge="1" parent="1" source="M50GNinpc0-9XSBfkmc_-60">
          <mxGeometry width="50" height="50" relative="1" as="geometry">
            <mxPoint x="160" y="280" as="sourcePoint" />
            <mxPoint x="210" y="230" as="targetPoint" />
            <Array as="points">
              <mxPoint x="105" y="210" />
              <mxPoint x="105" y="220" />
              <mxPoint x="120" y="230" />
              <mxPoint x="190" y="230" />
            </Array>
          </mxGeometry>
        </mxCell>
        <mxCell id="M50GNinpc0-9XSBfkmc_-63" value="&lt;font face=&quot;Garamond&quot; style=&quot;color: light-dark(rgb(0, 0, 0), rgb(255, 255, 102)); font-size: 17px;&quot;&gt;!&lt;/font&gt;&lt;div&gt;&lt;font face=&quot;Garamond&quot; style=&quot;color: light-dark(rgb(0, 0, 0), rgb(255, 255, 102)); font-size: 17px;&quot;&gt;Limite de requisições&lt;/font&gt;&lt;/div&gt;&lt;div&gt;&lt;font face=&quot;Garamond&quot; style=&quot;color: light-dark(rgb(0, 0, 0), rgb(255, 255, 102)); font-size: 17px;&quot;&gt;&lt;br&gt;&lt;/font&gt;&lt;/div&gt;&lt;div&gt;&lt;font face=&quot;Garamond&quot; style=&quot;color: light-dark(rgb(0, 0, 0), rgb(255, 255, 102)); font-size: 17px;&quot;&gt;Verificar se é por domínio ou por cliente/assinatura&lt;/font&gt;&lt;/div&gt;" style="text;html=1;align=center;verticalAlign=middle;whiteSpace=wrap;rounded=0;" vertex="1" parent="1">
          <mxGeometry x="440" y="30" width="170" height="150" as="geometry" />
        </mxCell>
        <mxCell id="M50GNinpc0-9XSBfkmc_-66" value="&lt;div&gt;&lt;font style=&quot;font-size: 15px;&quot;&gt;Manter as informações na API&lt;/font&gt;&lt;/div&gt;" style="text;html=1;align=center;verticalAlign=middle;resizable=0;points=[];autosize=1;strokeColor=none;fillColor=none;" vertex="1" parent="1">
          <mxGeometry x="5" y="360" width="220" height="30" as="geometry" />
        </mxCell>
        <mxCell id="M50GNinpc0-9XSBfkmc_-76" value="" style="edgeStyle=orthogonalEdgeStyle;rounded=0;orthogonalLoop=1;jettySize=auto;html=1;" edge="1" parent="1" source="M50GNinpc0-9XSBfkmc_-67" target="M50GNinpc0-9XSBfkmc_-75">
          <mxGeometry relative="1" as="geometry" />
        </mxCell>
        <mxCell id="M50GNinpc0-9XSBfkmc_-67" value="API" style="rounded=0;whiteSpace=wrap;html=1;" vertex="1" parent="1">
          <mxGeometry x="230" y="430" width="120" height="60" as="geometry" />
        </mxCell>
        <mxCell id="M50GNinpc0-9XSBfkmc_-78" value="" style="edgeStyle=orthogonalEdgeStyle;rounded=0;orthogonalLoop=1;jettySize=auto;html=1;" edge="1" parent="1" source="M50GNinpc0-9XSBfkmc_-68" target="M50GNinpc0-9XSBfkmc_-67">
          <mxGeometry relative="1" as="geometry" />
        </mxCell>
        <mxCell id="M50GNinpc0-9XSBfkmc_-68" value="Requisição de pagamento" style="text;html=1;align=center;verticalAlign=middle;resizable=0;points=[];autosize=1;strokeColor=none;fillColor=none;" vertex="1" parent="1">
          <mxGeometry x="10" y="445" width="160" height="30" as="geometry" />
        </mxCell>
        <mxCell id="M50GNinpc0-9XSBfkmc_-74" value="" style="edgeStyle=orthogonalEdgeStyle;rounded=0;orthogonalLoop=1;jettySize=auto;html=1;" edge="1" parent="1" source="M50GNinpc0-9XSBfkmc_-71" target="M50GNinpc0-9XSBfkmc_-67">
          <mxGeometry relative="1" as="geometry" />
        </mxCell>
        <mxCell id="M50GNinpc0-9XSBfkmc_-71" value="Infos Fiscais&lt;div&gt;Tokens&lt;/div&gt;" style="text;html=1;align=center;verticalAlign=middle;resizable=0;points=[];autosize=1;strokeColor=none;fillColor=none;" vertex="1" parent="1">
          <mxGeometry x="245" y="520" width="90" height="40" as="geometry" />
        </mxCell>
        <mxCell id="M50GNinpc0-9XSBfkmc_-73" value="" style="edgeStyle=orthogonalEdgeStyle;rounded=0;orthogonalLoop=1;jettySize=auto;html=1;" edge="1" parent="1" source="M50GNinpc0-9XSBfkmc_-72" target="M50GNinpc0-9XSBfkmc_-71">
          <mxGeometry relative="1" as="geometry" />
        </mxCell>
        <mxCell id="M50GNinpc0-9XSBfkmc_-72" value="" style="shape=cylinder3;whiteSpace=wrap;html=1;boundedLbl=1;backgroundOutline=1;size=15;" vertex="1" parent="1">
          <mxGeometry x="270" y="600" width="40" height="50" as="geometry" />
        </mxCell>
        <mxCell id="M50GNinpc0-9XSBfkmc_-77" value="" style="edgeStyle=orthogonalEdgeStyle;rounded=0;orthogonalLoop=1;jettySize=auto;html=1;" edge="1" parent="1" source="M50GNinpc0-9XSBfkmc_-75" target="M50GNinpc0-9XSBfkmc_-67">
          <mxGeometry relative="1" as="geometry" />
        </mxCell>
        <mxCell id="M50GNinpc0-9XSBfkmc_-75" value="Bank API" style="rounded=0;whiteSpace=wrap;html=1;" vertex="1" parent="1">
          <mxGeometry x="410" y="430" width="120" height="60" as="geometry" />
        </mxCell>
        <mxCell id="M50GNinpc0-9XSBfkmc_-79" value="" style="rounded=0;whiteSpace=wrap;html=1;fillColor=none;" vertex="1" parent="1">
          <mxGeometry y="740" width="560" height="110" as="geometry" />
        </mxCell>
        <mxCell id="M50GNinpc0-9XSBfkmc_-80" value="&lt;div&gt;&lt;font style=&quot;font-size: 15px;&quot;&gt;Receber as infos pela API&lt;/font&gt;&lt;/div&gt;" style="text;html=1;align=center;verticalAlign=middle;resizable=0;points=[];autosize=1;strokeColor=none;fillColor=none;" vertex="1" parent="1">
          <mxGeometry y="700" width="200" height="30" as="geometry" />
        </mxCell>
        <mxCell id="M50GNinpc0-9XSBfkmc_-81" value="" style="edgeStyle=orthogonalEdgeStyle;rounded=0;orthogonalLoop=1;jettySize=auto;html=1;" edge="1" parent="1" source="M50GNinpc0-9XSBfkmc_-82" target="M50GNinpc0-9XSBfkmc_-90">
          <mxGeometry relative="1" as="geometry" />
        </mxCell>
        <mxCell id="M50GNinpc0-9XSBfkmc_-82" value="API" style="rounded=0;whiteSpace=wrap;html=1;" vertex="1" parent="1">
          <mxGeometry x="230" y="770" width="120" height="60" as="geometry" />
        </mxCell>
        <mxCell id="M50GNinpc0-9XSBfkmc_-83" value="" style="edgeStyle=orthogonalEdgeStyle;rounded=0;orthogonalLoop=1;jettySize=auto;html=1;" edge="1" parent="1" source="M50GNinpc0-9XSBfkmc_-84" target="M50GNinpc0-9XSBfkmc_-82">
          <mxGeometry relative="1" as="geometry" />
        </mxCell>
        <mxCell id="M50GNinpc0-9XSBfkmc_-84" value="Requisição de pagamento&lt;div&gt;&lt;br&gt;&lt;/div&gt;" style="text;html=1;align=center;verticalAlign=middle;resizable=0;points=[];autosize=1;strokeColor=none;fillColor=none;" vertex="1" parent="1">
          <mxGeometry x="10" y="780" width="160" height="40" as="geometry" />
        </mxCell>
        <mxCell id="M50GNinpc0-9XSBfkmc_-85" value="" style="edgeStyle=orthogonalEdgeStyle;rounded=0;orthogonalLoop=1;jettySize=auto;html=1;" edge="1" parent="1" target="M50GNinpc0-9XSBfkmc_-82">
          <mxGeometry relative="1" as="geometry">
            <mxPoint x="165" y="800" as="sourcePoint" />
          </mxGeometry>
        </mxCell>
        <mxCell id="M50GNinpc0-9XSBfkmc_-86" value="Infos Fiscais&lt;div&gt;&lt;br&gt;&lt;/div&gt;" style="text;html=1;align=center;verticalAlign=middle;resizable=0;points=[];autosize=1;strokeColor=none;fillColor=none;" vertex="1" parent="1">
          <mxGeometry x="10" y="800" width="90" height="40" as="geometry" />
        </mxCell>
        <mxCell id="M50GNinpc0-9XSBfkmc_-89" value="" style="edgeStyle=orthogonalEdgeStyle;rounded=0;orthogonalLoop=1;jettySize=auto;html=1;" edge="1" parent="1" source="M50GNinpc0-9XSBfkmc_-90" target="M50GNinpc0-9XSBfkmc_-82">
          <mxGeometry relative="1" as="geometry" />
        </mxCell>
        <mxCell id="M50GNinpc0-9XSBfkmc_-90" value="Bank API" style="rounded=0;whiteSpace=wrap;html=1;" vertex="1" parent="1">
          <mxGeometry x="410" y="770" width="120" height="60" as="geometry" />
        </mxCell>
        <mxCell id="M50GNinpc0-9XSBfkmc_-91" value="Tokens&lt;div&gt;&lt;br&gt;&lt;/div&gt;" style="text;html=1;align=center;verticalAlign=middle;resizable=0;points=[];autosize=1;strokeColor=none;fillColor=none;" vertex="1" parent="1">
          <mxGeometry x="10" y="820" width="60" height="40" as="geometry" />
        </mxCell>
        <mxCell id="M50GNinpc0-9XSBfkmc_-112" style="edgeStyle=orthogonalEdgeStyle;rounded=0;orthogonalLoop=1;jettySize=auto;html=1;exitX=0.75;exitY=0;exitDx=0;exitDy=0;" edge="1" parent="1" source="M50GNinpc0-9XSBfkmc_-95">
          <mxGeometry relative="1" as="geometry">
            <mxPoint x="325.0952380952381" y="1200" as="targetPoint" />
          </mxGeometry>
        </mxCell>
        <mxCell id="M50GNinpc0-9XSBfkmc_-95" value="RABBITMQ" style="rounded=1;whiteSpace=wrap;html=1;" vertex="1" parent="1">
          <mxGeometry x="220" y="1320" width="140" height="110" as="geometry" />
        </mxCell>
        <mxCell id="M50GNinpc0-9XSBfkmc_-110" style="edgeStyle=orthogonalEdgeStyle;rounded=0;orthogonalLoop=1;jettySize=auto;html=1;exitX=0;exitY=0.75;exitDx=0;exitDy=0;entryX=1;entryY=0.75;entryDx=0;entryDy=0;" edge="1" parent="1" source="M50GNinpc0-9XSBfkmc_-96" target="M50GNinpc0-9XSBfkmc_-97">
          <mxGeometry relative="1" as="geometry" />
        </mxCell>
        <mxCell id="M50GNinpc0-9XSBfkmc_-116" style="edgeStyle=orthogonalEdgeStyle;rounded=0;orthogonalLoop=1;jettySize=auto;html=1;exitX=0.25;exitY=1;exitDx=0;exitDy=0;entryX=0.25;entryY=0;entryDx=0;entryDy=0;" edge="1" parent="1" source="M50GNinpc0-9XSBfkmc_-96" target="M50GNinpc0-9XSBfkmc_-98">
          <mxGeometry relative="1" as="geometry" />
        </mxCell>
        <mxCell id="M50GNinpc0-9XSBfkmc_-96" value="BANK API&lt;div&gt;&lt;br&gt;&lt;/div&gt;" style="rounded=0;whiteSpace=wrap;html=1;" vertex="1" parent="1">
          <mxGeometry x="600" y="1140" width="120" height="60" as="geometry" />
        </mxCell>
        <mxCell id="M50GNinpc0-9XSBfkmc_-109" style="edgeStyle=orthogonalEdgeStyle;rounded=0;orthogonalLoop=1;jettySize=auto;html=1;exitX=1;exitY=0.25;exitDx=0;exitDy=0;entryX=0;entryY=0.25;entryDx=0;entryDy=0;" edge="1" parent="1" source="M50GNinpc0-9XSBfkmc_-97" target="M50GNinpc0-9XSBfkmc_-96">
          <mxGeometry relative="1" as="geometry" />
        </mxCell>
        <mxCell id="M50GNinpc0-9XSBfkmc_-115" style="edgeStyle=orthogonalEdgeStyle;rounded=0;orthogonalLoop=1;jettySize=auto;html=1;exitX=0;exitY=0.75;exitDx=0;exitDy=0;entryX=1;entryY=1;entryDx=0;entryDy=0;" edge="1" parent="1" source="M50GNinpc0-9XSBfkmc_-97" target="M50GNinpc0-9XSBfkmc_-104">
          <mxGeometry relative="1" as="geometry" />
        </mxCell>
        <mxCell id="M50GNinpc0-9XSBfkmc_-97" value="API" style="rounded=0;whiteSpace=wrap;html=1;" vertex="1" parent="1">
          <mxGeometry x="220" y="1140" width="120" height="60" as="geometry" />
        </mxCell>
        <mxCell id="M50GNinpc0-9XSBfkmc_-117" style="edgeStyle=orthogonalEdgeStyle;rounded=0;orthogonalLoop=1;jettySize=auto;html=1;exitX=0.75;exitY=0;exitDx=0;exitDy=0;entryX=0.75;entryY=1;entryDx=0;entryDy=0;" edge="1" parent="1" source="M50GNinpc0-9XSBfkmc_-98" target="M50GNinpc0-9XSBfkmc_-96">
          <mxGeometry relative="1" as="geometry" />
        </mxCell>
        <mxCell id="M50GNinpc0-9XSBfkmc_-98" value="CONSUMER" style="rounded=0;whiteSpace=wrap;html=1;" vertex="1" parent="1">
          <mxGeometry x="600" y="1340" width="120" height="60" as="geometry" />
        </mxCell>
        <mxCell id="M50GNinpc0-9XSBfkmc_-102" value="&lt;div&gt;&lt;br&gt;&lt;/div&gt;&lt;div&gt;&lt;br&gt;&lt;/div&gt;" style="text;html=1;align=center;verticalAlign=middle;resizable=0;points=[];autosize=1;strokeColor=none;fillColor=none;" vertex="1" parent="1">
          <mxGeometry x="50" y="1153" width="20" height="40" as="geometry" />
        </mxCell>
        <mxCell id="M50GNinpc0-9XSBfkmc_-114" style="edgeStyle=orthogonalEdgeStyle;rounded=0;orthogonalLoop=1;jettySize=auto;html=1;exitX=1;exitY=0;exitDx=0;exitDy=0;entryX=0;entryY=0.25;entryDx=0;entryDy=0;" edge="1" parent="1" source="M50GNinpc0-9XSBfkmc_-104" target="M50GNinpc0-9XSBfkmc_-97">
          <mxGeometry relative="1" as="geometry" />
        </mxCell>
        <mxCell id="M50GNinpc0-9XSBfkmc_-106" value="Filas" style="strokeWidth=2;html=1;shape=mxgraph.flowchart.delay;whiteSpace=wrap;" vertex="1" parent="1">
          <mxGeometry x="360" y="1350" width="240" height="20" as="geometry" />
        </mxCell>
        <mxCell id="M50GNinpc0-9XSBfkmc_-104" value="CLIENT" style="ellipse;whiteSpace=wrap;html=1;" vertex="1" parent="1">
          <mxGeometry x="30" y="1130" width="120" height="80" as="geometry" />
        </mxCell>
        <mxCell id="M50GNinpc0-9XSBfkmc_-107" value="Filas" style="strokeWidth=2;html=1;shape=mxgraph.flowchart.delay;whiteSpace=wrap;" vertex="1" parent="1">
          <mxGeometry x="360" y="1380" width="240" height="20" as="geometry" />
        </mxCell>
        <mxCell id="M50GNinpc0-9XSBfkmc_-111" style="edgeStyle=orthogonalEdgeStyle;rounded=0;orthogonalLoop=1;jettySize=auto;html=1;exitX=0.25;exitY=1;exitDx=0;exitDy=0;entryX=0.213;entryY=0;entryDx=0;entryDy=0;entryPerimeter=0;" edge="1" parent="1" source="M50GNinpc0-9XSBfkmc_-97" target="M50GNinpc0-9XSBfkmc_-95">
          <mxGeometry relative="1" as="geometry" />
        </mxCell>
        <mxCell id="M50GNinpc0-9XSBfkmc_-119" value="" style="swimlane;startSize=0;" vertex="1" parent="1">
          <mxGeometry x="10" y="1100" width="790" height="360" as="geometry">
            <mxRectangle x="10" y="1100" width="50" height="40" as="alternateBounds" />
          </mxGeometry>
        </mxCell>
        <mxCell id="M50GNinpc0-9XSBfkmc_-136" value="" style="swimlane;startSize=0;" vertex="1" parent="1">
          <mxGeometry x="850" y="1100" width="790" height="360" as="geometry">
            <mxRectangle x="10" y="1100" width="50" height="40" as="alternateBounds" />
          </mxGeometry>
        </mxCell>
        <mxCell id="M50GNinpc0-9XSBfkmc_-120" style="edgeStyle=orthogonalEdgeStyle;rounded=0;orthogonalLoop=1;jettySize=auto;html=1;exitX=0.75;exitY=0;exitDx=0;exitDy=0;" edge="1" parent="M50GNinpc0-9XSBfkmc_-136" source="M50GNinpc0-9XSBfkmc_-121">
          <mxGeometry relative="1" as="geometry">
            <mxPoint x="315.0952380952381" y="97" as="targetPoint" />
          </mxGeometry>
        </mxCell>
        <mxCell id="M50GNinpc0-9XSBfkmc_-121" value="RABBITMQ" style="rounded=1;whiteSpace=wrap;html=1;" vertex="1" parent="M50GNinpc0-9XSBfkmc_-136">
          <mxGeometry x="210" y="217" width="140" height="110" as="geometry" />
        </mxCell>
        <mxCell id="M50GNinpc0-9XSBfkmc_-123" style="edgeStyle=orthogonalEdgeStyle;rounded=0;orthogonalLoop=1;jettySize=auto;html=1;exitX=0.25;exitY=1;exitDx=0;exitDy=0;entryX=0.25;entryY=0;entryDx=0;entryDy=0;" edge="1" parent="M50GNinpc0-9XSBfkmc_-136" source="M50GNinpc0-9XSBfkmc_-124" target="M50GNinpc0-9XSBfkmc_-129">
          <mxGeometry relative="1" as="geometry" />
        </mxCell>
        <mxCell id="M50GNinpc0-9XSBfkmc_-124" value="BANK API&lt;div&gt;&lt;br&gt;&lt;/div&gt;" style="rounded=0;whiteSpace=wrap;html=1;" vertex="1" parent="M50GNinpc0-9XSBfkmc_-136">
          <mxGeometry x="590" y="37" width="120" height="60" as="geometry" />
        </mxCell>
        <mxCell id="M50GNinpc0-9XSBfkmc_-126" style="edgeStyle=orthogonalEdgeStyle;rounded=0;orthogonalLoop=1;jettySize=auto;html=1;exitX=0;exitY=0.75;exitDx=0;exitDy=0;entryX=1;entryY=0.75;entryDx=0;entryDy=0;" edge="1" parent="M50GNinpc0-9XSBfkmc_-136" source="M50GNinpc0-9XSBfkmc_-127" target="M50GNinpc0-9XSBfkmc_-139">
          <mxGeometry relative="1" as="geometry">
            <mxPoint x="122.42640687119297" y="95.28427124746213" as="targetPoint" />
          </mxGeometry>
        </mxCell>
        <mxCell id="M50GNinpc0-9XSBfkmc_-127" value="API" style="rounded=0;whiteSpace=wrap;html=1;" vertex="1" parent="M50GNinpc0-9XSBfkmc_-136">
          <mxGeometry x="210" y="37" width="120" height="60" as="geometry" />
        </mxCell>
        <mxCell id="M50GNinpc0-9XSBfkmc_-128" style="edgeStyle=orthogonalEdgeStyle;rounded=0;orthogonalLoop=1;jettySize=auto;html=1;exitX=0.75;exitY=0;exitDx=0;exitDy=0;entryX=0.75;entryY=1;entryDx=0;entryDy=0;" edge="1" parent="M50GNinpc0-9XSBfkmc_-136" source="M50GNinpc0-9XSBfkmc_-129" target="M50GNinpc0-9XSBfkmc_-124">
          <mxGeometry relative="1" as="geometry" />
        </mxCell>
        <mxCell id="M50GNinpc0-9XSBfkmc_-129" value="CONSUMER" style="rounded=0;whiteSpace=wrap;html=1;" vertex="1" parent="M50GNinpc0-9XSBfkmc_-136">
          <mxGeometry x="590" y="237" width="120" height="60" as="geometry" />
        </mxCell>
        <mxCell id="M50GNinpc0-9XSBfkmc_-130" value="&lt;div&gt;&lt;br&gt;&lt;/div&gt;&lt;div&gt;&lt;br&gt;&lt;/div&gt;" style="text;html=1;align=center;verticalAlign=middle;resizable=0;points=[];autosize=1;strokeColor=none;fillColor=none;" vertex="1" parent="M50GNinpc0-9XSBfkmc_-136">
          <mxGeometry x="40" y="50" width="20" height="40" as="geometry" />
        </mxCell>
        <mxCell id="M50GNinpc0-9XSBfkmc_-131" style="edgeStyle=orthogonalEdgeStyle;rounded=0;orthogonalLoop=1;jettySize=auto;html=1;entryX=0;entryY=0.25;entryDx=0;entryDy=0;" edge="1" parent="M50GNinpc0-9XSBfkmc_-136" source="M50GNinpc0-9XSBfkmc_-139" target="M50GNinpc0-9XSBfkmc_-127">
          <mxGeometry relative="1" as="geometry">
            <mxPoint x="122.42640687119297" y="38.715728752538325" as="sourcePoint" />
          </mxGeometry>
        </mxCell>
        <mxCell id="M50GNinpc0-9XSBfkmc_-132" value="Filas" style="strokeWidth=2;html=1;shape=mxgraph.flowchart.delay;whiteSpace=wrap;" vertex="1" parent="M50GNinpc0-9XSBfkmc_-136">
          <mxGeometry x="350" y="247" width="240" height="20" as="geometry" />
        </mxCell>
        <mxCell id="M50GNinpc0-9XSBfkmc_-134" value="Filas" style="strokeWidth=2;html=1;shape=mxgraph.flowchart.delay;whiteSpace=wrap;" vertex="1" parent="M50GNinpc0-9XSBfkmc_-136">
          <mxGeometry x="350" y="277" width="240" height="20" as="geometry" />
        </mxCell>
        <mxCell id="M50GNinpc0-9XSBfkmc_-135" style="edgeStyle=orthogonalEdgeStyle;rounded=0;orthogonalLoop=1;jettySize=auto;html=1;exitX=0.25;exitY=1;exitDx=0;exitDy=0;entryX=0.213;entryY=0;entryDx=0;entryDy=0;entryPerimeter=0;" edge="1" parent="M50GNinpc0-9XSBfkmc_-136" source="M50GNinpc0-9XSBfkmc_-127" target="M50GNinpc0-9XSBfkmc_-121">
          <mxGeometry relative="1" as="geometry" />
        </mxCell>
        <mxCell id="M50GNinpc0-9XSBfkmc_-139" value="" style="shape=actor;whiteSpace=wrap;html=1;" vertex="1" parent="M50GNinpc0-9XSBfkmc_-136">
          <mxGeometry x="48" y="30" width="40" height="60" as="geometry" />
        </mxCell>
        <mxCell id="M50GNinpc0-9XSBfkmc_-137" value="" style="swimlane;" vertex="1" parent="1">
          <mxGeometry x="12" y="1530" width="800" height="500" as="geometry">
            <mxRectangle x="12" y="1890" width="50" height="40" as="alternateBounds" />
          </mxGeometry>
        </mxCell>
        <mxCell id="M50GNinpc0-9XSBfkmc_-170" style="edgeStyle=orthogonalEdgeStyle;rounded=0;orthogonalLoop=1;jettySize=auto;html=1;exitX=0.25;exitY=1;exitDx=0;exitDy=0;entryX=0.293;entryY=0;entryDx=0;entryDy=0;entryPerimeter=0;" edge="1" parent="M50GNinpc0-9XSBfkmc_-137" source="M50GNinpc0-9XSBfkmc_-144" target="M50GNinpc0-9XSBfkmc_-157">
          <mxGeometry relative="1" as="geometry" />
        </mxCell>
        <mxCell id="M50GNinpc0-9XSBfkmc_-162" value="" style="edgeStyle=orthogonalEdgeStyle;rounded=0;orthogonalLoop=1;jettySize=auto;html=1;" edge="1" parent="M50GNinpc0-9XSBfkmc_-137" source="M50GNinpc0-9XSBfkmc_-143" target="M50GNinpc0-9XSBfkmc_-145">
          <mxGeometry relative="1" as="geometry">
            <Array as="points">
              <mxPoint x="128" y="80" />
              <mxPoint x="128" y="80" />
            </Array>
          </mxGeometry>
        </mxCell>
        <mxCell id="M50GNinpc0-9XSBfkmc_-143" value="" style="shape=actor;whiteSpace=wrap;html=1;" vertex="1" parent="M50GNinpc0-9XSBfkmc_-137">
          <mxGeometry x="68" y="40" width="40" height="60" as="geometry" />
        </mxCell>
        <mxCell id="M50GNinpc0-9XSBfkmc_-144" value="RABBITMQ" style="rounded=0;whiteSpace=wrap;html=1;strokeColor=light-dark(#000000,#33FFFF);align=center;verticalAlign=middle;fontFamily=Helvetica;fontSize=12;fontColor=default;fillColor=default;" vertex="1" parent="M50GNinpc0-9XSBfkmc_-137">
          <mxGeometry x="428" y="50" width="140" height="60" as="geometry" />
        </mxCell>
        <mxCell id="M50GNinpc0-9XSBfkmc_-146" style="edgeStyle=orthogonalEdgeStyle;rounded=0;orthogonalLoop=1;jettySize=auto;html=1;exitX=1;exitY=0.5;exitDx=0;exitDy=0;entryX=0;entryY=0.5;entryDx=0;entryDy=0;" edge="1" parent="M50GNinpc0-9XSBfkmc_-137" source="M50GNinpc0-9XSBfkmc_-145" target="M50GNinpc0-9XSBfkmc_-144">
          <mxGeometry relative="1" as="geometry" />
        </mxCell>
        <mxCell id="M50GNinpc0-9XSBfkmc_-145" value="API" style="rounded=0;whiteSpace=wrap;html=1;strokeColor=light-dark(#000000,#33FFFF);" vertex="1" parent="M50GNinpc0-9XSBfkmc_-137">
          <mxGeometry x="178" y="50" width="120" height="60" as="geometry" />
        </mxCell>
        <mxCell id="M50GNinpc0-9XSBfkmc_-149" value="&lt;font style=&quot;color: light-dark(rgb(0, 0, 0), rgb(255, 255, 102));&quot;&gt;Pagamento instantâneo&lt;/font&gt;" style="rounded=1;whiteSpace=wrap;html=1;align=left;" vertex="1" parent="M50GNinpc0-9XSBfkmc_-137">
          <mxGeometry x="428" y="150" width="372" height="20" as="geometry" />
        </mxCell>
        <mxCell id="M50GNinpc0-9XSBfkmc_-150" value="&lt;font style=&quot;color: light-dark(rgb(0, 0, 0), rgb(255, 255, 153));&quot;&gt;Pagamento agendado&lt;/font&gt;" style="rounded=1;whiteSpace=wrap;html=1;align=left;strokeColor=default;verticalAlign=middle;fontFamily=Helvetica;fontSize=12;fontColor=default;fillColor=default;" vertex="1" parent="M50GNinpc0-9XSBfkmc_-137">
          <mxGeometry x="428" y="190" width="372" height="20" as="geometry" />
        </mxCell>
        <mxCell id="M50GNinpc0-9XSBfkmc_-151" value="&lt;font style=&quot;color: light-dark(rgb(0, 0, 0), rgb(255, 255, 153));&quot;&gt;Cancelamento&lt;/font&gt;" style="rounded=1;whiteSpace=wrap;html=1;align=left;strokeColor=default;verticalAlign=middle;fontFamily=Helvetica;fontSize=12;fontColor=default;fillColor=default;" vertex="1" parent="M50GNinpc0-9XSBfkmc_-137">
          <mxGeometry x="428" y="230" width="372" height="20" as="geometry" />
        </mxCell>
        <mxCell id="M50GNinpc0-9XSBfkmc_-152" value="DB" style="strokeWidth=2;html=1;shape=mxgraph.flowchart.database;whiteSpace=wrap;" vertex="1" parent="M50GNinpc0-9XSBfkmc_-137">
          <mxGeometry x="208" y="150" width="60" height="60" as="geometry" />
        </mxCell>
        <mxCell id="M50GNinpc0-9XSBfkmc_-153" style="edgeStyle=orthogonalEdgeStyle;rounded=0;orthogonalLoop=1;jettySize=auto;html=1;exitX=0.5;exitY=1;exitDx=0;exitDy=0;entryX=0.5;entryY=0;entryDx=0;entryDy=0;entryPerimeter=0;" edge="1" parent="M50GNinpc0-9XSBfkmc_-137" source="M50GNinpc0-9XSBfkmc_-145" target="M50GNinpc0-9XSBfkmc_-152">
          <mxGeometry relative="1" as="geometry" />
        </mxCell>
        <mxCell id="M50GNinpc0-9XSBfkmc_-154" value="raw&lt;div&gt;&lt;br&gt;&lt;/div&gt;" style="text;html=1;align=center;verticalAlign=middle;resizable=0;points=[];autosize=1;strokeColor=none;fillColor=none;" vertex="1" parent="M50GNinpc0-9XSBfkmc_-137">
          <mxGeometry x="238" y="110" width="40" height="40" as="geometry" />
        </mxCell>
        <mxCell id="M50GNinpc0-9XSBfkmc_-167" value="" style="edgeStyle=orthogonalEdgeStyle;rounded=0;orthogonalLoop=1;jettySize=auto;html=1;" edge="1" parent="M50GNinpc0-9XSBfkmc_-137" source="M50GNinpc0-9XSBfkmc_-157" target="M50GNinpc0-9XSBfkmc_-164">
          <mxGeometry relative="1" as="geometry" />
        </mxCell>
        <mxCell id="M50GNinpc0-9XSBfkmc_-168" style="edgeStyle=orthogonalEdgeStyle;rounded=0;orthogonalLoop=1;jettySize=auto;html=1;exitX=0;exitY=0.5;exitDx=0;exitDy=0;entryX=1;entryY=0.5;entryDx=0;entryDy=0;" edge="1" parent="M50GNinpc0-9XSBfkmc_-137" source="M50GNinpc0-9XSBfkmc_-157" target="M50GNinpc0-9XSBfkmc_-158">
          <mxGeometry relative="1" as="geometry" />
        </mxCell>
        <mxCell id="M50GNinpc0-9XSBfkmc_-157" value="&lt;font style=&quot;font-size: 14px;&quot;&gt;Consumer&lt;/font&gt;" style="rounded=0;whiteSpace=wrap;html=1;strokeColor=light-dark(#000000,#33FFFF);align=center;verticalAlign=middle;fontFamily=Helvetica;fontSize=12;fontColor=default;fillColor=default;" vertex="1" parent="M50GNinpc0-9XSBfkmc_-137">
          <mxGeometry x="428" y="290" width="120" height="60" as="geometry" />
        </mxCell>
        <mxCell id="M50GNinpc0-9XSBfkmc_-163" style="edgeStyle=orthogonalEdgeStyle;rounded=0;orthogonalLoop=1;jettySize=auto;html=1;exitX=0;exitY=0.5;exitDx=0;exitDy=0;entryX=0.5;entryY=1;entryDx=0;entryDy=0;" edge="1" parent="M50GNinpc0-9XSBfkmc_-137" source="M50GNinpc0-9XSBfkmc_-158" target="M50GNinpc0-9XSBfkmc_-143">
          <mxGeometry relative="1" as="geometry" />
        </mxCell>
        <mxCell id="M50GNinpc0-9XSBfkmc_-158" value="Callback" style="whiteSpace=wrap;html=1;rounded=0;strokeColor=light-dark(#000000,#33FFFF);align=center;verticalAlign=middle;fontFamily=Helvetica;fontSize=12;fontColor=default;fillColor=default;glass=1;" vertex="1" parent="M50GNinpc0-9XSBfkmc_-137">
          <mxGeometry x="178" y="290" width="120" height="60" as="geometry" />
        </mxCell>
        <mxCell id="M50GNinpc0-9XSBfkmc_-164" value="BANK API&lt;div&gt;&lt;br&gt;&lt;/div&gt;" style="rounded=0;whiteSpace=wrap;html=1;" vertex="1" parent="M50GNinpc0-9XSBfkmc_-137">
          <mxGeometry x="428" y="400" width="120" height="60" as="geometry" />
        </mxCell>
        <mxCell id="M50GNinpc0-9XSBfkmc_-169" style="edgeStyle=orthogonalEdgeStyle;rounded=0;orthogonalLoop=1;jettySize=auto;html=1;exitX=0;exitY=0.75;exitDx=0;exitDy=0;entryX=1.025;entryY=0.924;entryDx=0;entryDy=0;entryPerimeter=0;" edge="1" parent="M50GNinpc0-9XSBfkmc_-137" source="M50GNinpc0-9XSBfkmc_-145" target="M50GNinpc0-9XSBfkmc_-143">
          <mxGeometry relative="1" as="geometry" />
        </mxCell>
        <mxCell id="M50GNinpc0-9XSBfkmc_-171" value="Text" style="text;html=1;align=center;verticalAlign=middle;resizable=0;points=[];autosize=1;strokeColor=none;fillColor=none;" vertex="1" parent="1">
          <mxGeometry x="1805" y="228" width="50" height="30" as="geometry" />
        </mxCell>
        <mxCell id="M50GNinpc0-9XSBfkmc_-172" value="" style="swimlane;" vertex="1" parent="1">
          <mxGeometry x="860" y="1530" width="800" height="500" as="geometry">
            <mxRectangle x="12" y="1890" width="50" height="40" as="alternateBounds" />
          </mxGeometry>
        </mxCell>
        <mxCell id="M50GNinpc0-9XSBfkmc_-173" style="edgeStyle=orthogonalEdgeStyle;rounded=0;orthogonalLoop=1;jettySize=auto;html=1;exitX=0.25;exitY=1;exitDx=0;exitDy=0;entryX=0.293;entryY=0;entryDx=0;entryDy=0;entryPerimeter=0;" edge="1" parent="M50GNinpc0-9XSBfkmc_-172" source="M50GNinpc0-9XSBfkmc_-176" target="M50GNinpc0-9XSBfkmc_-187">
          <mxGeometry relative="1" as="geometry" />
        </mxCell>
        <mxCell id="M50GNinpc0-9XSBfkmc_-174" value="" style="edgeStyle=orthogonalEdgeStyle;rounded=0;orthogonalLoop=1;jettySize=auto;html=1;" edge="1" parent="M50GNinpc0-9XSBfkmc_-172" source="M50GNinpc0-9XSBfkmc_-175" target="M50GNinpc0-9XSBfkmc_-178">
          <mxGeometry relative="1" as="geometry">
            <Array as="points">
              <mxPoint x="128" y="80" />
              <mxPoint x="128" y="80" />
            </Array>
          </mxGeometry>
        </mxCell>
        <mxCell id="M50GNinpc0-9XSBfkmc_-175" value="" style="shape=actor;whiteSpace=wrap;html=1;" vertex="1" parent="M50GNinpc0-9XSBfkmc_-172">
          <mxGeometry x="68" y="40" width="40" height="60" as="geometry" />
        </mxCell>
        <mxCell id="M50GNinpc0-9XSBfkmc_-176" value="RABBITMQ" style="rounded=0;whiteSpace=wrap;html=1;strokeColor=light-dark(#000000,#33FFFF);align=center;verticalAlign=middle;fontFamily=Helvetica;fontSize=12;fontColor=default;fillColor=default;" vertex="1" parent="M50GNinpc0-9XSBfkmc_-172">
          <mxGeometry x="428" y="50" width="140" height="60" as="geometry" />
        </mxCell>
        <mxCell id="M50GNinpc0-9XSBfkmc_-177" style="edgeStyle=orthogonalEdgeStyle;rounded=0;orthogonalLoop=1;jettySize=auto;html=1;exitX=1;exitY=0.5;exitDx=0;exitDy=0;entryX=0;entryY=0.5;entryDx=0;entryDy=0;" edge="1" parent="M50GNinpc0-9XSBfkmc_-172" source="M50GNinpc0-9XSBfkmc_-178" target="M50GNinpc0-9XSBfkmc_-176">
          <mxGeometry relative="1" as="geometry" />
        </mxCell>
        <mxCell id="M50GNinpc0-9XSBfkmc_-178" value="API" style="rounded=0;whiteSpace=wrap;html=1;strokeColor=light-dark(#000000,#33FFFF);" vertex="1" parent="M50GNinpc0-9XSBfkmc_-172">
          <mxGeometry x="178" y="50" width="120" height="60" as="geometry" />
        </mxCell>
        <mxCell id="M50GNinpc0-9XSBfkmc_-179" value="&lt;font style=&quot;color: light-dark(rgb(0, 0, 0), rgb(255, 255, 102));&quot;&gt;Pagamento instantâneo&lt;/font&gt;" style="rounded=1;whiteSpace=wrap;html=1;align=left;" vertex="1" parent="M50GNinpc0-9XSBfkmc_-172">
          <mxGeometry x="428" y="150" width="372" height="20" as="geometry" />
        </mxCell>
        <mxCell id="M50GNinpc0-9XSBfkmc_-180" value="&lt;font style=&quot;color: light-dark(rgb(0, 0, 0), rgb(255, 255, 153));&quot;&gt;Pagamento agendado&lt;/font&gt;" style="rounded=1;whiteSpace=wrap;html=1;align=left;strokeColor=default;verticalAlign=middle;fontFamily=Helvetica;fontSize=12;fontColor=default;fillColor=default;" vertex="1" parent="M50GNinpc0-9XSBfkmc_-172">
          <mxGeometry x="428" y="190" width="372" height="20" as="geometry" />
        </mxCell>
        <mxCell id="M50GNinpc0-9XSBfkmc_-181" value="&lt;font style=&quot;color: light-dark(rgb(0, 0, 0), rgb(255, 255, 153));&quot;&gt;Cancelamento&lt;/font&gt;" style="rounded=1;whiteSpace=wrap;html=1;align=left;strokeColor=default;verticalAlign=middle;fontFamily=Helvetica;fontSize=12;fontColor=default;fillColor=default;" vertex="1" parent="M50GNinpc0-9XSBfkmc_-172">
          <mxGeometry x="428" y="230" width="372" height="20" as="geometry" />
        </mxCell>
        <mxCell id="M50GNinpc0-9XSBfkmc_-182" value="DB" style="strokeWidth=2;html=1;shape=mxgraph.flowchart.database;whiteSpace=wrap;" vertex="1" parent="M50GNinpc0-9XSBfkmc_-172">
          <mxGeometry x="208" y="150" width="60" height="60" as="geometry" />
        </mxCell>
        <mxCell id="M50GNinpc0-9XSBfkmc_-183" style="edgeStyle=orthogonalEdgeStyle;rounded=0;orthogonalLoop=1;jettySize=auto;html=1;exitX=0.5;exitY=1;exitDx=0;exitDy=0;entryX=0.5;entryY=0;entryDx=0;entryDy=0;entryPerimeter=0;" edge="1" parent="M50GNinpc0-9XSBfkmc_-172" source="M50GNinpc0-9XSBfkmc_-178" target="M50GNinpc0-9XSBfkmc_-182">
          <mxGeometry relative="1" as="geometry" />
        </mxCell>
        <mxCell id="M50GNinpc0-9XSBfkmc_-184" value="raw&lt;div&gt;&lt;br&gt;&lt;/div&gt;" style="text;html=1;align=center;verticalAlign=middle;resizable=0;points=[];autosize=1;strokeColor=none;fillColor=none;" vertex="1" parent="M50GNinpc0-9XSBfkmc_-172">
          <mxGeometry x="238" y="110" width="40" height="40" as="geometry" />
        </mxCell>
        <mxCell id="M50GNinpc0-9XSBfkmc_-185" value="" style="edgeStyle=orthogonalEdgeStyle;rounded=0;orthogonalLoop=1;jettySize=auto;html=1;" edge="1" parent="M50GNinpc0-9XSBfkmc_-172" source="M50GNinpc0-9XSBfkmc_-187" target="M50GNinpc0-9XSBfkmc_-190">
          <mxGeometry relative="1" as="geometry" />
        </mxCell>
        <mxCell id="M50GNinpc0-9XSBfkmc_-186" style="edgeStyle=orthogonalEdgeStyle;rounded=0;orthogonalLoop=1;jettySize=auto;html=1;exitX=0;exitY=0.5;exitDx=0;exitDy=0;entryX=1;entryY=0.5;entryDx=0;entryDy=0;" edge="1" parent="M50GNinpc0-9XSBfkmc_-172" source="M50GNinpc0-9XSBfkmc_-187" target="M50GNinpc0-9XSBfkmc_-189">
          <mxGeometry relative="1" as="geometry" />
        </mxCell>
        <mxCell id="M50GNinpc0-9XSBfkmc_-187" value="&lt;font style=&quot;font-size: 14px;&quot;&gt;Consumer&lt;/font&gt;" style="rounded=0;whiteSpace=wrap;html=1;strokeColor=light-dark(#000000,#33FFFF);align=center;verticalAlign=middle;fontFamily=Helvetica;fontSize=12;fontColor=default;fillColor=default;" vertex="1" parent="M50GNinpc0-9XSBfkmc_-172">
          <mxGeometry x="428" y="290" width="120" height="60" as="geometry" />
        </mxCell>
        <mxCell id="M50GNinpc0-9XSBfkmc_-188" style="edgeStyle=orthogonalEdgeStyle;rounded=0;orthogonalLoop=1;jettySize=auto;html=1;exitX=0;exitY=0.5;exitDx=0;exitDy=0;entryX=0.5;entryY=1;entryDx=0;entryDy=0;" edge="1" parent="M50GNinpc0-9XSBfkmc_-172" source="M50GNinpc0-9XSBfkmc_-189" target="M50GNinpc0-9XSBfkmc_-175">
          <mxGeometry relative="1" as="geometry" />
        </mxCell>
        <mxCell id="M50GNinpc0-9XSBfkmc_-189" value="Callback" style="whiteSpace=wrap;html=1;rounded=0;strokeColor=light-dark(#000000,#33FFFF);align=center;verticalAlign=middle;fontFamily=Helvetica;fontSize=12;fontColor=default;fillColor=default;glass=1;" vertex="1" parent="M50GNinpc0-9XSBfkmc_-172">
          <mxGeometry x="178" y="290" width="120" height="60" as="geometry" />
        </mxCell>
        <mxCell id="M50GNinpc0-9XSBfkmc_-190" value="BANK API&lt;div&gt;&lt;br&gt;&lt;/div&gt;" style="rounded=0;whiteSpace=wrap;html=1;" vertex="1" parent="M50GNinpc0-9XSBfkmc_-172">
          <mxGeometry x="428" y="400" width="120" height="60" as="geometry" />
        </mxCell>
        <mxCell id="M50GNinpc0-9XSBfkmc_-191" style="edgeStyle=orthogonalEdgeStyle;rounded=0;orthogonalLoop=1;jettySize=auto;html=1;exitX=0;exitY=0.75;exitDx=0;exitDy=0;entryX=1.025;entryY=0.924;entryDx=0;entryDy=0;entryPerimeter=0;" edge="1" parent="M50GNinpc0-9XSBfkmc_-172" source="M50GNinpc0-9XSBfkmc_-178" target="M50GNinpc0-9XSBfkmc_-175">
          <mxGeometry relative="1" as="geometry" />
        </mxCell>
      </root>
    </mxGraphModel>
  </diagram>
</mxfile>
